<svg width="21" height="20" viewBox="0 0 21 20" fill="none" xmlns="http://www.w3.org/2000/svg">
<path fill-rule="evenodd" clip-rule="evenodd" d="M1.75 10.0002C1.75 9.83442 1.81585 9.67545 1.93306 9.55824C2.05027 9.44103 2.20924 9.37518 2.375 9.37518H17.1163L13.1825 5.44268C13.0651 5.32532 12.9992 5.16615 12.9992 5.00018C12.9992 4.83421 13.0651 4.67504 13.1825 4.55768C13.2999 4.44032 13.459 4.37439 13.625 4.37439C13.791 4.37439 13.9501 4.44032 14.0675 4.55768L19.0675 9.55768C19.1257 9.61574 19.1719 9.68471 19.2034 9.76064C19.2349 9.83657 19.2511 9.91797 19.2511 10.0002C19.2511 10.0824 19.2349 10.1638 19.2034 10.2397C19.1719 10.3157 19.1257 10.3846 19.0675 10.4427L14.0675 15.4427C13.9501 15.56 13.791 15.626 13.625 15.626C13.459 15.626 13.2999 15.56 13.1825 15.4427C13.0651 15.3253 12.9992 15.1661 12.9992 15.0002C12.9992 14.8342 13.0651 14.675 13.1825 14.5577L17.1163 10.6252H2.375C2.20924 10.6252 2.05027 10.5593 1.93306 10.4421C1.81585 10.3249 1.75 10.1659 1.75 10.0002Z" fill="#F8F9FA"/>
</svg>
