<svg width="48" height="48" viewBox="0 0 48 48" fill="none" xmlns="http://www.w3.org/2000/svg">
<path fill-rule="evenodd" clip-rule="evenodd" d="M15.75 29.25C15.75 29.0511 15.829 28.8603 15.9697 28.7197C16.1103 28.579 16.3011 28.5 16.5 28.5H31.5C31.6989 28.5 31.8897 28.579 32.0303 28.7197C32.171 28.8603 32.25 29.0511 32.25 29.25C32.25 29.4489 32.171 29.6397 32.0303 29.7803C31.8897 29.921 31.6989 30 31.5 30H16.5C16.3011 30 16.1103 29.921 15.9697 29.7803C15.829 29.6397 15.75 29.4489 15.75 29.25ZM15.75 23.25C15.75 23.0511 15.829 22.8603 15.9697 22.7197C16.1103 22.579 16.3011 22.5 16.5 22.5H31.5C31.6989 22.5 31.8897 22.579 32.0303 22.7197C32.171 22.8603 32.25 23.0511 32.25 23.25C32.25 23.4489 32.171 23.6397 32.0303 23.7803C31.8897 23.921 31.6989 24 31.5 24H16.5C16.3011 24 16.1103 23.921 15.9697 23.7803C15.829 23.6397 15.75 23.4489 15.75 23.25ZM15.75 17.25C15.75 17.0511 15.829 16.8603 15.9697 16.7197C16.1103 16.579 16.3011 16.5 16.5 16.5H31.5C31.6989 16.5 31.8897 16.579 32.0303 16.7197C32.171 16.8603 32.25 17.0511 32.25 17.25C32.25 17.4489 32.171 17.6397 32.0303 17.7803C31.8897 17.921 31.6989 18 31.5 18H16.5C16.3011 18 16.1103 17.921 15.9697 17.7803C15.829 17.6397 15.75 17.4489 15.75 17.25Z" fill="black"/>
</svg>
